<svg version="1.1" id="Layer_1" xmlns="http://www.w3.org/2000/svg" xmlns:xlink="http://www.w3.org/1999/xlink" x="0px" y="0px"
	 width="100%" viewBox="0 0 1024 1024" enable-background="new 0 0 1024 1024" xml:space="preserve">
<path fill="#000000" opacity="1.000000" stroke="none" 
	d="
M1.000003,436.000000 
	C1.000000,291.030090 1.000000,146.060165 1.000000,1.045128 
	C342.232422,1.045128 683.464844,1.045128 1025.000000,1.045128 
	C1025.000000,188.026749 1025.000000,375.053650 1024.684814,562.878052 
	C1023.580444,561.133179 1022.627136,558.628662 1022.030396,556.041870 
	C1019.482971,544.998718 1014.801819,534.967407 1008.020142,525.525879 
	C1000.345459,512.071228 992.695190,498.978638 985.020996,485.524414 
	C975.660095,468.938812 966.358215,452.694458 956.962158,436.504791 
	C954.471741,432.213623 951.691406,428.090698 949.018799,423.526794 
	C943.041626,412.656860 937.168091,402.105194 931.109314,391.661011 
	C927.251282,385.010437 923.118164,378.519409 919.056702,371.591187 
	C914.322021,362.969604 909.702942,354.676392 904.929749,346.472992 
	C902.440674,342.195312 899.679871,338.075836 897.018005,333.521667 
	C891.159363,321.441345 884.311035,310.467407 873.968140,301.633514 
	C862.059692,291.795319 848.916504,285.139099 833.569397,282.093018 
	C814.425232,281.734985 795.713684,281.450592 776.538513,281.092712 
	C748.104675,281.014771 720.134583,280.996368 692.164490,281.042816 
	C690.583801,281.045441 688.882568,281.297455 687.443359,281.914062 
	C677.663574,286.104370 675.303101,295.560516 681.216980,305.588074 
	C689.876892,320.271637 698.389221,335.042175 706.964600,349.775543 
	C712.328308,358.990845 720.398499,363.578766 731.466431,363.904144 
	C750.954285,363.927460 769.978394,363.880402 789.421204,363.904236 
	C804.101685,365.516479 816.434448,371.244019 827.028687,381.360840 
	C828.114563,382.798126 829.221252,383.823151 829.982361,385.060730 
	C836.320618,395.366821 842.595154,405.712128 848.943787,416.405609 
	C856.125793,429.089294 863.252930,441.412994 870.594299,454.007629 
	C880.836182,471.534149 890.863892,488.789703 900.945496,506.406738 
	C906.547058,516.248169 912.138916,525.702576 917.631165,535.214478 
	C924.499451,547.109314 931.726746,558.870361 933.093933,573.454285 
	C933.373108,585.456726 930.110718,596.091797 924.451111,605.989441 
	C916.581787,619.751465 908.399902,633.334351 900.475647,647.065430 
	C891.094666,663.320679 881.888794,679.676880 872.527283,695.943420 
	C862.924866,712.628540 853.305481,729.304932 843.535339,745.891968 
	C838.775391,753.973022 834.238892,762.290894 828.546509,769.690186 
	C821.869873,778.368896 812.123657,783.154907 801.541443,786.935425 
	C795.666138,787.655701 790.217712,788.768921 784.744324,788.909668 
	C771.836792,789.241760 758.917358,789.110474 745.539062,789.092285 
	C727.717834,789.067566 710.360291,789.117065 692.539062,789.092285 
	C672.384705,789.067444 652.693970,789.117004 632.539551,789.092468 
	C617.039246,788.696472 601.867249,790.360229 586.938965,785.627197 
	C573.748962,780.517944 564.139404,771.744080 556.963745,759.627808 
	C552.509460,751.721252 548.285400,744.089722 543.870483,736.570251 
	C536.681946,724.326599 529.368713,712.156128 522.056885,699.591614 
	C507.962585,675.024963 493.919495,650.821594 479.905029,626.233337 
	C474.116364,615.891479 468.269684,605.951538 462.488068,595.973816 
	C451.674622,577.312439 440.898926,558.629272 429.962036,539.630615 
	C426.542542,533.532166 423.360107,527.703796 419.971252,521.997986 
	C415.773193,514.929749 411.404022,507.963013 407.056793,500.588379 
	C399.353210,487.113190 391.701599,474.002075 384.022125,460.530457 
	C376.884796,447.829285 369.806335,435.470612 362.649506,423.157501 
	C360.052979,418.690277 358.757172,414.050568 361.360443,409.294586 
	C364.039551,404.400055 368.106750,401.631012 374.097260,401.932648 
	C379.384705,402.198883 384.701263,401.887512 390.468567,401.900879 
	C401.749695,401.979889 412.567902,402.063873 423.384125,401.951141 
	C426.464996,401.919067 429.607300,401.607605 432.604309,400.916443 
	C440.150269,399.176392 445.742004,389.546265 442.311066,383.009827 
	C435.898010,370.791931 428.701691,358.985199 421.797943,346.656799 
	C419.849945,342.912079 417.885773,339.544708 416.029968,336.118713 
	C410.943726,326.728760 404.035370,319.590363 392.713806,318.986847 
	C381.495667,318.388916 370.244202,318.415924 358.542908,318.096588 
	C342.719360,318.071838 327.360291,318.119293 311.537231,318.095520 
	C297.912720,318.016693 284.746185,317.761719 271.593445,318.079010 
	C260.939484,318.336029 251.742676,322.030151 246.059784,331.780334 
	C237.451797,346.549164 228.955627,361.383087 220.378342,376.169891 
	C209.758392,394.478180 199.120117,412.775848 188.458572,431.059937 
	C182.108673,441.949829 180.183395,453.006378 186.863922,464.516235 
	C189.394699,468.876495 191.726730,473.353577 194.308838,477.682251 
	C198.791397,485.196869 203.398026,492.637421 207.982681,500.470520 
	C209.692902,503.979034 211.392715,507.115753 213.049637,510.274963 
	C218.638062,520.929993 233.741501,520.567566 239.118530,510.781708 
	C246.168030,497.952087 253.653397,485.359528 261.074036,472.737152 
	C265.825684,464.654694 269.438538,454.880341 282.122681,457.419312 
	C284.748505,459.565796 288.078827,460.890198 289.534424,463.332062 
	C298.914764,479.068848 307.849396,495.070587 317.003021,510.943451 
	C322.993683,521.331726 329.106750,531.649475 335.202881,542.348633 
	C343.032440,556.091309 350.824188,569.484192 358.773071,583.166687 
	C359.950104,585.277954 360.938416,587.118225 361.995239,588.918213 
	C368.286285,599.632812 374.593170,610.338196 380.948486,621.408569 
	C397.654053,650.550903 414.305847,679.331299 431.101807,708.432129 
	C442.245270,728.039795 453.195465,747.355286 464.278778,766.594238 
	C467.015289,771.344360 470.184601,775.845154 473.118866,780.843933 
	C485.041107,801.189392 496.999451,821.151550 509.087341,841.418884 
	C510.509308,843.016052 511.833221,844.278198 513.089111,845.604736 
	C521.046021,854.009338 529.971130,861.024048 541.136353,865.436584 
	C556.060791,871.463928 571.357666,872.962402 587.467163,871.904541 
	C607.621460,871.928162 627.312134,871.880737 647.466431,871.904663 
	C665.287781,871.928406 682.645325,871.880859 700.466553,871.905212 
	C719.287964,871.929199 737.645752,871.881348 756.467163,871.905151 
	C774.288086,871.929016 791.645386,871.881226 809.466003,871.905640 
	C816.684448,871.653137 823.464478,871.590637 830.189941,870.952454 
	C847.820374,869.279358 862.591431,861.249329 875.703369,849.786621 
	C887.783264,839.225891 894.316711,824.789795 902.179260,811.334900 
	C914.351929,790.504272 926.101135,769.426697 938.170593,748.535217 
	C952.592163,723.572266 967.163818,698.696106 981.666931,673.780212 
	C990.058167,659.364014 998.567871,645.014893 1006.791748,630.503784 
	C1013.877991,618.000000 1021.781799,605.783203 1023.148132,590.879333 
	C1023.179932,590.532593 1024.357056,590.290771 1025.000000,590.000000 
	C1025.000000,734.969910 1025.000000,879.939880 1025.000000,1024.954834 
	C683.767578,1024.954834 342.535156,1024.954834 1.000000,1024.954834 
	C1.000000,837.973267 1.000000,650.946350 1.224587,463.123138 
	C1.929157,462.566498 2.409140,462.806122 2.936401,463.465576 
	C4.000445,472.813751 6.794435,481.162933 11.196025,489.347626 
	C15.113657,496.147430 19.001989,502.597412 22.942287,509.408508 
	C23.808842,511.151398 24.632595,512.527893 25.436632,513.915771 
	C34.923538,530.290833 44.407513,546.667542 54.037735,563.370117 
	C61.920345,577.044189 69.657463,590.391907 77.600891,604.017456 
	C85.835518,618.212036 93.863831,632.128784 102.038826,646.370972 
	C109.420586,659.146362 116.655663,671.596436 123.942635,684.405945 
	C126.168457,688.520142 128.384415,692.251282 130.508148,696.034180 
	C136.082306,705.962952 141.932434,715.675781 151.033234,723.361938 
	C165.534912,736.018066 182.026688,743.338867 201.457840,744.903259 
	C211.947540,744.927673 221.972748,744.880310 232.461929,744.904297 
	C243.616699,744.928223 254.307495,744.880859 265.462341,744.904541 
	C277.950348,744.928101 289.974335,744.880676 302.462402,744.904114 
	C313.216614,744.983032 323.506866,745.024414 333.796875,744.989502 
	C343.602936,744.956299 350.944122,735.410339 346.896637,726.468628 
	C342.123932,715.924622 335.775513,706.093872 330.055786,695.594238 
	C327.719055,691.326111 325.493805,687.383118 323.141785,683.517212 
	C319.229736,677.087219 316.698730,669.512939 308.664612,666.002441 
	C306.114899,664.889221 303.945129,663.271606 301.672394,663.111084 
	C293.466339,662.531250 285.225616,662.441711 276.534088,662.097168 
	C266.044617,662.074219 256.019043,662.121216 245.534210,662.098450 
	C226.713837,662.940796 211.160385,656.573853 197.905548,643.577393 
	C195.969788,640.788391 193.971924,638.429810 192.410400,635.811035 
	C185.904984,624.901123 179.530884,613.912964 172.959290,602.629578 
	C165.578018,589.857178 158.346100,577.408691 151.057129,564.599976 
	C149.984146,562.406982 149.012604,560.547913 147.945099,558.745667 
	C140.677322,546.475220 133.389343,534.216797 126.053741,521.592102 
	C118.367500,508.137329 110.735405,495.044952 103.049965,481.591431 
	C90.307793,461.073090 89.722641,440.620636 101.600388,419.923615 
	C111.051521,403.454956 120.578430,387.029724 130.087860,370.594543 
	C137.976532,356.960480 145.900833,343.347046 153.787506,329.711823 
	C163.214371,313.413757 172.562271,297.069763 182.055450,280.810516 
	C186.719757,272.821838 191.107956,264.590485 196.582108,257.178741 
	C202.207840,249.561691 210.524292,244.921570 219.385178,240.900757 
	C227.071609,239.645157 234.338501,237.464233 241.679123,237.178818 
	C257.764435,236.553421 273.887146,236.888779 290.458679,236.904755 
	C301.282013,236.929977 311.641205,236.882217 322.464050,236.906860 
	C344.616669,236.930145 366.305634,236.881027 388.458740,236.904419 
	C402.948212,237.262390 416.973480,237.547821 431.345459,238.008514 
	C436.720398,240.212173 442.223419,241.518860 446.664368,244.440109 
	C453.140259,248.699951 458.852478,254.120743 464.942810,259.405701 
	C465.902954,261.281403 466.820526,262.792145 467.716644,264.315521 
	C473.535919,274.207825 479.350555,284.102875 485.201233,294.345184 
	C491.453888,305.144470 497.672028,315.595581 503.942993,326.408630 
	C508.961487,335.197021 513.927124,343.623444 518.944519,352.411774 
	C528.383301,369.069458 537.743835,385.380707 547.173767,401.651703 
	C549.999329,406.527100 553.018677,411.290161 555.979004,416.464905 
	C569.058167,439.373657 582.107605,461.922150 595.124878,484.847107 
	C597.655762,489.573486 600.245422,493.908081 602.777100,498.276215 
	C612.324646,514.749329 621.853333,531.233276 631.588867,547.994019 
	C632.476257,549.373657 633.198608,550.452454 633.846191,551.574402 
	C643.855042,568.916565 653.868591,586.256042 663.849976,603.614014 
	C669.543762,613.515808 663.349426,623.993469 651.824951,623.998169 
	C634.509399,624.005249 617.193848,623.975220 599.878357,624.007446 
	C584.519165,624.036011 579.353943,637.629517 585.538452,647.340088 
	C593.137512,659.271667 599.483032,671.994263 606.781677,684.127563 
	C610.361023,690.077942 614.869080,695.469543 619.104614,701.431763 
	C625.104248,703.832520 630.846436,707.209534 636.832031,707.717407 
	C647.811890,708.648926 658.935303,707.888611 670.463013,707.903381 
	C686.284912,707.926575 701.642639,707.880005 717.464478,707.903076 
	C730.244324,707.981934 742.568298,708.273804 754.873352,707.914062 
	C765.345215,707.607910 774.369751,703.809570 779.922913,694.277039 
	C789.829529,677.271423 799.552734,660.159180 809.424133,643.132935 
	C818.809448,626.945068 828.268860,610.800110 837.729309,594.656006 
	C843.216187,585.292664 845.899170,575.224976 840.860168,565.226074 
	C834.588135,552.780212 827.044373,540.975281 820.020142,528.535400 
	C817.003418,523.167603 814.502686,517.758484 810.842041,513.302307 
	C808.735718,510.738220 804.927307,508.838593 801.579285,508.169342 
	C792.455566,506.345490 788.065613,512.692322 784.145386,519.491882 
	C775.872498,533.841125 767.453247,548.106262 759.219055,562.477417 
	C756.671753,566.923279 752.832886,568.773193 747.608887,569.096497 
	C741.626770,568.602173 737.988098,565.432251 735.309082,560.752014 
	C729.598083,550.774963 723.807678,540.843445 717.905396,530.573547 
	C709.470825,515.703186 701.260376,501.106323 692.856079,486.621887 
	C688.795532,479.623657 684.370728,472.836731 680.056396,465.590790 
	C668.278992,444.817871 656.556030,424.408264 644.794678,403.652161 
	C637.169800,390.203369 629.617981,377.080750 621.985291,364.005371 
	C616.322327,354.304138 610.554260,344.664215 604.792297,334.648499 
	C598.077087,322.651245 591.464966,310.966156 584.708740,299.364990 
	C579.172729,289.859070 573.465393,280.453033 567.795715,270.653076 
	C562.782837,261.869171 557.808167,253.434937 552.795105,244.651276 
	C551.090210,241.325363 549.498535,238.303909 547.742554,235.381119 
	C543.237183,227.881882 538.658813,220.426483 534.055542,212.591721 
	C532.635071,209.681076 531.388611,207.058823 529.880676,204.596695 
	C524.563538,195.915054 520.247864,186.499329 511.917114,179.589432 
	C501.790070,168.942200 490.260101,161.165222 475.836975,157.551071 
	C461.983276,153.074570 447.968842,153.883636 433.529297,154.098206 
	C411.377167,154.074036 389.688629,154.119781 367.535889,154.095459 
	C356.379700,154.072876 345.687653,154.120361 334.531921,154.097412 
	C311.712006,154.072906 289.355743,154.118866 266.535492,154.094940 
	C253.380722,154.072113 240.689987,154.119202 227.535400,154.095093 
	C219.714081,154.071503 212.356598,154.119125 204.559616,154.095230 
	C195.412750,155.737991 186.705383,157.452286 177.641113,159.204803 
	C175.397064,160.159332 173.523499,161.104996 171.620483,161.987106 
	C160.619232,167.086655 150.441605,173.779526 143.435944,183.542892 
	C134.672836,195.755432 127.229019,208.943466 119.611832,221.942505 
	C108.790977,240.408691 98.405678,259.129486 87.698677,277.663116 
	C73.340553,302.516815 58.848167,327.292877 44.422623,352.107635 
	C35.946617,366.688080 27.426146,381.243225 19.041389,395.876038 
	C11.957038,408.239410 4.282667,420.383942 2.847159,435.107269 
	C2.812620,435.461517 1.641176,435.704926 1.000003,436.000000 
z"/>
<path fill="#00D0FF" opacity="1.000000" stroke="none" 
	d="
M1025.000000,589.531372 
	C1024.357056,590.290771 1023.179932,590.532593 1023.148132,590.879333 
	C1021.781799,605.783203 1013.877991,618.000000 1006.791748,630.503784 
	C998.567871,645.014893 990.058167,659.364014 981.666931,673.780212 
	C967.163818,698.696106 952.592163,723.572266 938.170593,748.535217 
	C926.101135,769.426697 914.351929,790.504272 902.179260,811.334900 
	C894.316711,824.789795 887.783264,839.225891 875.703369,849.786621 
	C862.591431,861.249329 847.820374,869.279358 830.189941,870.952454 
	C823.464478,871.590637 816.684448,871.653137 809.485718,871.544434 
	C809.407166,870.015137 809.596313,868.817566 810.163025,867.838501 
	C822.906799,845.820251 835.719971,823.842224 848.462036,801.822998 
	C862.537354,777.499695 876.554199,753.142517 890.597351,728.800598 
	C905.138489,703.595337 919.683777,678.392395 934.221130,653.185059 
	C947.263611,630.569763 960.255005,607.924927 973.348633,585.339417 
	C984.856567,565.489014 996.474915,545.702576 1008.044495,525.887939 
	C1014.801819,534.967407 1019.482971,544.998718 1022.030396,556.041870 
	C1022.627136,558.628662 1023.580444,561.133179 1024.684814,563.337769 
	C1025.000000,571.687561 1025.000000,580.375183 1025.000000,589.531372 
z"/>
<path fill="#A801FF" opacity="1.000000" stroke="none" 
	d="
M1.000003,436.468658 
	C1.641176,435.704926 2.812620,435.461517 2.847159,435.107269 
	C4.282667,420.383942 11.957038,408.239410 19.041389,395.876038 
	C27.426146,381.243225 35.946617,366.688080 44.422623,352.107635 
	C58.848167,327.292877 73.340553,302.516815 87.698677,277.663116 
	C98.405678,259.129486 108.790977,240.408691 119.611832,221.942505 
	C127.229019,208.943466 134.672836,195.755432 143.435944,183.542892 
	C150.441605,173.779526 160.619232,167.086655 171.620483,161.987106 
	C173.523499,161.104996 175.397064,160.159332 177.636841,159.582703 
	C177.430954,161.631729 177.147430,163.499191 176.269974,165.025131 
	C169.891541,176.117569 163.332306,187.105972 156.944122,198.192856 
	C132.551422,240.527100 108.225342,282.899719 83.828995,325.231873 
	C60.262882,366.123413 36.678062,407.004333 12.997447,447.829590 
	C9.947815,453.087158 6.273867,457.982574 2.889123,463.045715 
	C2.409140,462.806122 1.929157,462.566498 1.224587,462.663452 
	C1.000000,454.312439 1.000000,445.624878 1.000003,436.468658 
z"/>
<path fill="#00CAFF" opacity="1.000000" stroke="none" 
	d="
M1008.020142,525.525879 
	C996.474915,545.702576 984.856567,565.489014 973.348633,585.339417 
	C960.255005,607.924927 947.263611,630.569763 934.221130,653.185059 
	C919.683777,678.392395 905.138489,703.595337 890.597351,728.800598 
	C876.554199,753.142517 862.537354,777.499695 848.462036,801.822998 
	C835.719971,823.842224 822.906799,845.820251 810.163025,867.838501 
	C809.596313,868.817566 809.407166,870.015137 809.022461,871.472168 
	C791.645386,871.881226 774.288086,871.929016 756.471069,871.527161 
	C756.479675,869.505981 756.661499,867.769165 757.458984,866.387695 
	C770.183411,844.346313 783.050171,822.386780 795.716125,800.312134 
	C798.163208,796.047302 799.895081,791.372192 801.956909,786.886353 
	C812.123657,783.154907 821.869873,778.368896 828.546509,769.690186 
	C834.238892,762.290894 838.775391,753.973022 843.535339,745.891968 
	C853.305481,729.304932 862.924866,712.628540 872.527283,695.943420 
	C881.888794,679.676880 891.094666,663.320679 900.475647,647.065430 
	C908.399902,633.334351 916.581787,619.751465 924.451111,605.989441 
	C930.110718,596.091797 933.373108,585.456726 933.406860,573.349976 
	C934.923767,571.392456 936.255676,570.107239 937.154785,568.568970 
	C941.340088,561.408081 945.360718,554.151245 949.522522,546.976440 
	C961.341797,526.600464 973.201294,506.247864 985.044922,485.886047 
	C992.695190,498.978638 1000.345459,512.071228 1008.020142,525.525879 
z"/>
<path fill="#006CFF" opacity="1.000000" stroke="none" 
	d="
M335.165009,541.998779 
	C329.106750,531.649475 322.993683,521.331726 317.003021,510.943451 
	C307.849396,495.070587 298.914764,479.068848 289.534424,463.332062 
	C288.078827,460.890198 284.748505,459.565796 282.148682,457.037476 
	C283.018433,453.904572 283.759705,451.305908 285.070312,449.035980 
	C308.010345,409.304626 331.055420,369.633881 353.955536,329.879578 
	C356.063477,326.220215 357.343109,322.083740 359.007355,318.168793 
	C370.244202,318.415924 381.495667,318.388916 392.713806,318.986847 
	C404.035370,319.590363 410.943726,326.728760 416.029968,336.118713 
	C417.885773,339.544708 419.849945,342.912079 421.485229,346.759338 
	C420.235931,348.324677 419.054657,349.314545 418.329071,350.568146 
	C411.514008,362.342896 404.697449,374.118317 398.054047,385.990143 
	C395.164032,391.154663 392.675720,396.544006 390.004944,401.831177 
	C384.701263,401.887512 379.384705,402.198883 374.097260,401.932648 
	C368.106750,401.631012 364.039551,404.400055 361.360443,409.294586 
	C358.757172,414.050568 360.052979,418.690277 362.649506,423.157501 
	C369.806335,435.470612 376.884796,447.829285 383.806274,460.794739 
	C382.324310,463.130096 380.829224,464.724792 379.767120,466.568909 
	C367.704102,487.513123 355.763611,508.528137 343.646790,529.440979 
	C341.120483,533.801270 338.007568,537.821716 335.165009,541.998779 
z"/>
<path fill="#9A08FF" opacity="1.000000" stroke="none" 
	d="
M53.892246,563.043823 
	C44.407513,546.667542 34.923538,530.290833 25.436632,513.915771 
	C24.632595,512.527893 23.808842,511.151398 23.243259,509.235504 
	C26.646015,503.656311 29.942156,498.693970 32.929310,493.552094 
	C47.212936,468.965332 61.434570,444.342438 75.636604,419.708405 
	C91.333862,392.480835 106.946724,365.204590 122.668869,337.991425 
	C137.891479,311.642883 153.237442,285.365631 168.472061,259.024017 
	C184.455826,231.387039 200.418686,203.737732 216.285049,176.033295 
	C220.392868,168.860596 224.105240,161.461441 227.999237,154.166290 
	C240.689987,154.119202 253.380722,154.072113 266.515564,154.455963 
	C266.420135,156.264618 266.048431,157.739365 265.316223,159.005646 
	C252.509354,181.154022 239.607697,203.247742 226.855728,225.427567 
	C223.985901,230.419144 221.605042,235.691849 218.999084,240.835129 
	C210.524292,244.921570 202.207840,249.561691 196.582108,257.178741 
	C191.107956,264.590485 186.719757,272.821838 182.055450,280.810516 
	C172.562271,297.069763 163.214371,313.413757 153.787506,329.711823 
	C145.900833,343.347046 137.976532,356.960480 130.087860,370.594543 
	C120.578430,387.029724 111.051521,403.454956 101.600388,419.923615 
	C89.722641,440.620636 90.307793,461.073090 102.756363,481.770935 
	C101.506966,483.617096 100.330467,484.826141 99.513855,486.242645 
	C87.589088,506.927429 75.784424,527.681885 63.773136,548.316162 
	C60.805099,553.414856 57.202911,558.144531 53.892246,563.043823 
z"/>
<path fill="#2344FF" opacity="1.000000" stroke="none" 
	d="
M618.956848,701.114075 
	C614.869080,695.469543 610.361023,690.077942 606.781677,684.127563 
	C599.483032,671.994263 593.137512,659.271667 585.538452,647.340088 
	C579.353943,637.629517 584.519165,624.036011 599.878357,624.007446 
	C617.193848,623.975220 634.509399,624.005249 651.824951,623.998169 
	C663.349426,623.993469 669.543762,613.515808 663.849976,603.614014 
	C653.868591,586.256042 643.855042,568.916565 633.846191,551.574402 
	C633.198608,550.452454 632.476257,549.373657 631.830322,547.653564 
	C644.572632,525.059570 657.209045,503.049133 670.020935,481.141327 
	C673.084106,475.903412 676.731995,471.007385 680.110901,465.954102 
	C684.370728,472.836731 688.795532,479.623657 692.856079,486.621887 
	C701.260376,501.106323 709.470825,515.703186 717.733521,530.872620 
	C716.569763,533.122070 715.314148,534.683105 714.316345,536.394470 
	C707.456665,548.159302 700.639160,559.948669 693.830627,571.743225 
	C680.794434,594.326355 667.798096,616.932495 654.738281,639.501892 
	C642.843445,660.057983 630.886414,680.578064 618.956848,701.114075 
z"/>
<path fill="#005AFF" opacity="1.000000" stroke="none" 
	d="
M207.952637,500.109039 
	C203.398026,492.637421 198.791397,485.196869 194.308838,477.682251 
	C191.726730,473.353577 189.394699,468.876495 186.863922,464.516235 
	C180.183395,453.006378 182.108673,441.949829 188.458572,431.059937 
	C199.120117,412.775848 209.758392,394.478180 220.378342,376.169891 
	C228.955627,361.383087 237.451797,346.549164 246.059784,331.780334 
	C251.742676,322.030151 260.939484,318.336029 271.593445,318.079010 
	C284.746185,317.761719 297.912720,318.016693 311.516174,318.458527 
	C311.299194,320.586151 310.846710,322.399261 309.948975,323.955536 
	C287.928558,362.129517 265.876099,400.285065 243.795349,438.424194 
	C231.880280,459.004639 219.902252,479.548615 207.952637,500.109039 
z"/>
<path fill="#0F4DFF" opacity="1.000000" stroke="none" 
	d="
M747.998901,569.166382 
	C752.832886,568.773193 756.671753,566.923279 759.219055,562.477417 
	C767.453247,548.106262 775.872498,533.841125 784.145386,519.491882 
	C788.065613,512.692322 792.455566,506.345490 801.579285,508.169342 
	C804.927307,508.838593 808.735718,510.738220 810.842041,513.302307 
	C814.502686,517.758484 817.003418,523.167603 819.849670,528.836670 
	C805.886414,553.169617 792.004395,576.808655 778.257141,600.525696 
	C762.425659,627.838379 746.678223,655.199890 730.970093,682.583679 
	C726.184509,690.926331 721.649902,699.412842 717.000427,707.833496 
	C701.642639,707.880005 686.284912,707.926575 670.483643,707.542236 
	C673.460510,700.864563 676.767944,694.552673 680.320190,688.381714 
	C700.070374,654.071045 719.915161,619.814758 739.632324,585.485107 
	C742.673401,580.190430 745.222351,574.613037 747.998901,569.166382 
z"/>
<path fill="#0060FF" opacity="1.000000" stroke="none" 
	d="
M207.982697,500.470520 
	C219.902252,479.548615 231.880280,459.004639 243.795349,438.424194 
	C265.876099,400.285065 287.928558,362.129517 309.948975,323.955536 
	C310.846710,322.399261 311.299194,320.586151 311.980164,318.529724 
	C327.360291,318.119293 342.719360,318.071838 358.542908,318.096588 
	C357.343109,322.083740 356.063477,326.220215 353.955536,329.879578 
	C331.055420,369.633881 308.010345,409.304626 285.070312,449.035980 
	C283.759705,451.305908 283.018433,453.904572 281.986206,456.732086 
	C269.438538,454.880341 265.825684,464.654694 261.074036,472.737152 
	C253.653397,485.359528 246.168030,497.952087 239.118530,510.781708 
	C233.741501,520.567566 218.638062,520.929993 213.049637,510.274963 
	C211.392715,507.115753 209.692902,503.979034 207.982697,500.470520 
z"/>
<path fill="#0552FF" opacity="1.000000" stroke="none" 
	d="
M717.464478,707.903076 
	C721.649902,699.412842 726.184509,690.926331 730.970093,682.583679 
	C746.678223,655.199890 762.425659,627.838379 778.257141,600.525696 
	C792.004395,576.808655 805.886414,553.169617 819.879333,529.194824 
	C827.044373,540.975281 834.588135,552.780212 840.860168,565.226074 
	C845.899170,575.224976 843.216187,585.292664 837.729309,594.656006 
	C828.268860,610.800110 818.809448,626.945068 809.424133,643.132935 
	C799.552734,660.159180 789.829529,677.271423 779.922913,694.277039 
	C774.369751,703.809570 765.345215,707.607910 754.873352,707.914062 
	C742.568298,708.273804 730.244324,707.981934 717.464478,707.903076 
z"/>
<path fill="#0086FF" opacity="1.000000" stroke="none" 
	d="
M430.957642,708.111755 
	C414.305847,679.331299 397.654053,650.550903 381.242249,621.229126 
	C382.660217,619.096375 384.009430,617.603516 384.990082,615.898682 
	C396.978210,595.058777 408.841339,574.146606 420.914581,553.356323 
	C423.627228,548.685059 427.025085,544.411682 430.107483,539.955139 
	C440.898926,558.629272 451.674622,577.312439 462.488068,595.973816 
	C468.269684,605.951538 474.116364,615.891479 479.545715,626.409180 
	C474.781555,633.961792 470.243866,640.858582 466.060089,647.963684 
	C454.281342,667.967163 442.648163,688.056335 430.957642,708.111755 
z"/>
<path fill="#1849FF" opacity="1.000000" stroke="none" 
	d="
M747.608887,569.096497 
	C745.222351,574.613037 742.673401,580.190430 739.632324,585.485107 
	C719.915161,619.814758 700.070374,654.071045 680.320190,688.381714 
	C676.767944,694.552673 673.460510,700.864563 670.019531,707.472534 
	C658.935303,707.888611 647.811890,708.648926 636.832031,707.717407 
	C630.846436,707.209534 625.104248,703.832520 619.104614,701.431763 
	C630.886414,680.578064 642.843445,660.057983 654.738281,639.501892 
	C667.798096,616.932495 680.794434,594.326355 693.830627,571.743225 
	C700.639160,559.948669 707.456665,548.159302 714.316345,536.394470 
	C715.314148,534.683105 716.569763,533.122070 717.877930,531.192383 
	C723.807678,540.843445 729.598083,550.774963 735.309082,560.752014 
	C737.988098,565.432251 741.626770,568.602173 747.608887,569.096497 
z"/>
<path fill="#A005FF" opacity="1.000000" stroke="none" 
	d="
M227.535416,154.095093 
	C224.105240,161.461441 220.392868,168.860596 216.285049,176.033295 
	C200.418686,203.737732 184.455826,231.387039 168.472061,259.024017 
	C153.237442,285.365631 137.891479,311.642883 122.668869,337.991425 
	C106.946724,365.204590 91.333862,392.480835 75.636604,419.708405 
	C61.434570,444.342438 47.212936,468.965332 32.929310,493.552094 
	C29.942156,498.693970 26.646015,503.656311 23.191292,508.874390 
	C19.001989,502.597412 15.113657,496.147430 11.524624,489.268738 
	C12.859835,487.606140 14.105570,486.493591 14.899958,485.119995 
	C25.478672,466.828156 35.954620,448.476898 46.534428,430.185699 
	C63.111557,401.525909 79.788078,372.923553 96.348900,344.254364 
	C114.408279,312.990875 132.358673,281.664459 150.403412,250.392517 
	C166.036102,223.300735 181.774155,196.269699 197.366684,169.154907 
	C200.157959,164.300980 202.467255,159.169876 204.999084,154.166748 
	C212.356598,154.119125 219.714081,154.071503 227.535416,154.095093 
z"/>
<path fill="#A303FF" opacity="1.000000" stroke="none" 
	d="
M204.559601,154.095215 
	C202.467255,159.169876 200.157959,164.300980 197.366684,169.154907 
	C181.774155,196.269699 166.036102,223.300735 150.403412,250.392517 
	C132.358673,281.664459 114.408279,312.990875 96.348900,344.254364 
	C79.788078,372.923553 63.111557,401.525909 46.534428,430.185699 
	C35.954620,448.476898 25.478672,466.828156 14.899958,485.119995 
	C14.105570,486.493591 12.859835,487.606140 11.495324,488.918945 
	C6.794435,481.162933 4.000445,472.813751 2.936401,463.465607 
	C6.273867,457.982574 9.947815,453.087158 12.997447,447.829590 
	C36.678062,407.004333 60.262882,366.123413 83.828995,325.231873 
	C108.225342,282.899719 132.551422,240.527100 156.944122,198.192856 
	C163.332306,187.105972 169.891541,176.117569 176.269974,165.025131 
	C177.147430,163.499191 177.430954,161.631729 177.993729,159.544495 
	C186.705383,157.452286 195.412750,155.737991 204.559601,154.095215 
z"/>
<path fill="#0095FF" opacity="1.000000" stroke="none" 
	d="
M431.101807,708.432129 
	C442.648163,688.056335 454.281342,667.967163 466.060089,647.963684 
	C470.243866,640.858582 474.781555,633.961792 479.517059,626.794067 
	C493.919495,650.821594 507.962585,675.024963 521.756836,699.764038 
	C520.561340,701.427185 519.422729,702.443604 518.696899,703.698669 
	C507.176544,723.618774 495.782104,743.612000 484.184204,763.486572 
	C480.787323,769.307678 476.846497,774.811401 473.154968,780.460571 
	C470.184601,775.845154 467.015289,771.344360 464.278778,766.594238 
	C453.195465,747.355286 442.245270,728.039795 431.101807,708.432129 
z"/>
<path fill="#3F36FF" opacity="1.000000" stroke="none" 
	d="
M595.157104,484.470673 
	C582.107605,461.922150 569.058167,439.373657 556.149292,416.164062 
	C570.225708,391.602478 584.117493,367.676117 598.150085,343.832642 
	C600.010559,340.671356 602.587708,337.931824 604.833008,334.996979 
	C610.554260,344.664215 616.322327,354.304138 621.985291,364.005371 
	C629.617981,377.080750 637.169800,390.203369 644.482178,403.755859 
	C643.238464,405.316742 642.056335,406.304443 641.330811,407.556671 
	C629.780823,427.494446 618.390198,447.525421 606.722229,467.393616 
	C603.247925,473.309570 599.032776,478.790436 595.157104,484.470673 
z"/>
<path fill="#4F2EFF" opacity="1.000000" stroke="none" 
	d="
M604.792297,334.648499 
	C602.587708,337.931824 600.010559,340.671356 598.150085,343.832642 
	C584.117493,367.676117 570.225708,391.602478 556.119629,415.803833 
	C553.018677,411.290161 549.999329,406.527100 547.173767,401.651703 
	C537.743835,385.380707 528.383301,369.069458 519.202515,352.186737 
	C520.104492,350.664978 520.900574,349.788361 521.480957,348.786743 
	C534.076782,327.050293 546.594055,305.268066 559.270752,283.579010 
	C561.823853,279.210785 564.964294,275.185883 567.833984,271.002716 
	C573.465393,280.453033 579.172729,289.859070 584.708740,299.364990 
	C591.464966,310.966156 598.077087,322.651245 604.792297,334.648499 
z"/>
<path fill="#00C1FF" opacity="1.000000" stroke="none" 
	d="
M985.021057,485.524384 
	C973.201294,506.247864 961.341797,526.600464 949.522522,546.976440 
	C945.360718,554.151245 941.340088,561.408081 937.154785,568.568970 
	C936.255676,570.107239 934.923767,571.392456 933.478271,572.898682 
	C931.726746,558.870361 924.499451,547.109314 917.631165,535.214478 
	C912.138916,525.702576 906.547058,516.248169 901.240540,506.226318 
	C907.664307,495.276062 913.936890,484.919861 920.009094,474.447479 
	C929.757141,457.635590 939.372620,440.746826 949.044128,423.890564 
	C951.691406,428.090698 954.471741,432.213623 956.962158,436.504791 
	C966.358215,452.694458 975.660095,468.938812 985.021057,485.524384 
z"/>
<path fill="#313CFF" opacity="1.000000" stroke="none" 
	d="
M595.124878,484.847107 
	C599.032776,478.790436 603.247925,473.309570 606.722229,467.393616 
	C618.390198,447.525421 629.780823,427.494446 641.330811,407.556671 
	C642.056335,406.304443 643.238464,405.316742 644.520569,404.102325 
	C656.556030,424.408264 668.278992,444.817871 680.056396,465.590790 
	C676.731995,471.007385 673.084106,475.903412 670.020935,481.141327 
	C657.209045,503.049133 644.572632,525.059570 631.630432,547.372803 
	C621.853333,531.233276 612.324646,514.749329 602.777100,498.276215 
	C600.245422,493.908081 597.655762,489.573486 595.124878,484.847107 
z"/>
<path fill="#009EFF" opacity="1.000000" stroke="none" 
	d="
M473.118866,780.843933 
	C476.846497,774.811401 480.787323,769.307678 484.184204,763.486572 
	C495.782104,743.612000 507.176544,723.618774 518.696899,703.698669 
	C519.422729,702.443604 520.561340,701.427185 521.807983,700.127319 
	C529.368713,712.156128 536.681946,724.326599 543.870483,736.570251 
	C548.285400,744.089722 552.509460,751.721252 556.669006,759.808899 
	C553.336975,765.561829 550.087341,770.768677 546.985046,776.061951 
	C534.284851,797.731506 521.629639,819.427429 508.957825,841.113647 
	C496.999451,821.151550 485.041107,801.189392 473.118866,780.843933 
z"/>
<path fill="#8F0DFF" opacity="1.000000" stroke="none" 
	d="
M219.385193,240.900757 
	C221.605042,235.691849 223.985901,230.419144 226.855728,225.427567 
	C239.607697,203.247742 252.509354,181.154022 265.316223,159.005646 
	C266.048431,157.739365 266.420135,156.264618 266.979553,154.525848 
	C289.355743,154.118866 311.712006,154.072906 334.511719,154.461121 
	C334.155701,156.889206 333.582977,159.013687 332.521881,160.857040 
	C321.082153,180.730026 309.491241,200.516312 298.119537,220.427872 
	C295.098663,225.717346 292.686310,231.354340 289.994568,236.831787 
	C273.887146,236.888779 257.764435,236.553421 241.679123,237.178818 
	C234.338501,237.464233 227.071609,239.645157 219.385193,240.900757 
z"/>
<path fill="#7E16FF" opacity="1.000000" stroke="none" 
	d="
M387.994568,236.831894 
	C366.305634,236.881027 344.616669,236.930145 322.485229,236.550110 
	C322.219940,235.485870 322.273712,234.779800 322.592255,234.226059 
	C332.687561,216.677399 342.870178,199.178665 352.900116,181.592834 
	C358.070038,172.528290 362.975250,163.312790 368.000061,154.165512 
	C389.688629,154.119781 411.377167,154.074036 433.460693,154.439362 
	C422.940643,174.013702 411.965179,193.142914 401.139496,212.356506 
	C396.594574,220.422974 392.366608,228.668015 387.994568,236.831894 
z"/>
<path fill="#00BBFF" opacity="1.000000" stroke="none" 
	d="
M949.018799,423.526794 
	C939.372620,440.746826 929.757141,457.635590 920.009094,474.447479 
	C913.936890,484.919861 907.664307,495.276062 901.186646,505.864838 
	C890.863892,488.789703 880.836182,471.534149 870.824829,453.663422 
	C884.010803,430.187073 897.120300,407.290771 910.402771,384.495270 
	C912.956360,380.112854 916.189026,376.126129 919.108398,371.956848 
	C923.118164,378.519409 927.251282,385.010437 931.109314,391.661011 
	C937.168091,402.105194 943.041626,412.656860 949.018799,423.526794 
z"/>
<path fill="#00B2FF" opacity="1.000000" stroke="none" 
	d="
M647.002747,871.833374 
	C627.312134,871.880737 607.621460,871.928162 587.487366,871.540649 
	C587.841736,869.114319 588.420654,866.998291 589.472900,865.152039 
	C596.291809,853.187134 603.244263,841.298523 610.093994,829.351196 
	C617.762939,815.974976 625.369507,802.563049 633.003235,789.166626 
	C652.693970,789.117004 672.384705,789.067444 692.517334,789.449097 
	C692.781677,790.515259 692.727417,791.221130 692.408813,791.774902 
	C682.313721,809.323059 672.131348,826.821350 662.101685,844.406677 
	C656.932007,853.470947 652.027222,862.686279 647.002747,871.833374 
z"/>
<path fill="#0095FF" opacity="1.000000" stroke="none" 
	d="
M731.002563,363.833801 
	C720.398499,363.578766 712.328308,358.990845 706.964600,349.775543 
	C698.389221,335.042175 689.876892,320.271637 681.216980,305.588074 
	C675.303101,295.560516 677.663574,286.104370 687.443359,281.914062 
	C688.882568,281.297455 690.583801,281.045441 692.164490,281.042816 
	C720.134583,280.996368 748.104675,281.014771 776.468811,281.432037 
	C764.907654,302.731079 752.891541,323.582764 741.034424,344.524506 
	C737.463074,350.832184 734.334167,357.390350 731.002563,363.833801 
z"/>
<path fill="#009EFF" opacity="1.000000" stroke="none" 
	d="
M731.466431,363.904144 
	C734.334167,357.390350 737.463074,350.832184 741.034424,344.524506 
	C752.891541,323.582764 764.907654,302.731079 776.932495,281.505554 
	C795.713684,281.450592 814.425232,281.734985 833.546875,282.462311 
	C833.386902,284.633270 833.090271,286.517975 832.204102,288.064941 
	C823.445251,303.355225 814.534058,318.558258 805.779358,333.850922 
	C800.089844,343.789398 794.588257,353.835510 789.002441,363.833374 
	C769.978394,363.880402 750.954285,363.927460 731.466431,363.904144 
z"/>
<path fill="#6B1FFF" opacity="1.000000" stroke="none" 
	d="
M200.993347,744.831543 
	C182.026688,743.338867 165.534912,736.018066 151.334015,723.188721 
	C153.986282,718.818481 156.622467,715.019714 158.949219,711.040039 
	C172.022095,688.680176 185.020355,666.276733 198.044113,643.888184 
	C211.160385,656.573853 226.713837,662.940796 245.530579,662.471863 
	C245.611557,664.165100 245.462860,665.545410 244.828674,666.645813 
	C233.784882,685.809021 222.590363,704.885864 211.640686,724.102356 
	C207.798615,730.845215 204.525986,737.912415 200.993347,744.831543 
z"/>
<path fill="#00C1FF" opacity="1.000000" stroke="none" 
	d="
M801.541382,786.935425 
	C799.895081,791.372192 798.163208,796.047302 795.716125,800.312134 
	C783.050171,822.386780 770.183411,844.346313 757.458984,866.387695 
	C756.661499,867.769165 756.479675,869.505981 756.007568,871.455444 
	C737.645752,871.881348 719.287964,871.929199 700.535767,871.563843 
	C700.603516,870.085205 700.965454,868.961792 701.542542,867.962769 
	C714.330139,845.824463 727.182617,823.723694 739.910156,801.551086 
	C742.195801,797.569153 743.984558,793.302063 746.002747,789.166626 
	C758.917358,789.110474 771.836792,789.241760 784.744324,788.909668 
	C790.217712,788.768921 795.666138,787.655701 801.541382,786.935425 
z"/>
<path fill="#00BBFF" opacity="1.000000" stroke="none" 
	d="
M745.539062,789.092346 
	C743.984558,793.302063 742.195801,797.569153 739.910156,801.551086 
	C727.182617,823.723694 714.330139,845.824463 701.542542,867.962769 
	C700.965454,868.961792 700.603516,870.085205 700.072144,871.491943 
	C682.645325,871.880859 665.287781,871.928406 647.466431,871.904663 
	C652.027222,862.686279 656.932007,853.470947 662.101685,844.406677 
	C672.131348,826.821350 682.313721,809.323059 692.408813,791.774902 
	C692.727417,791.221130 692.781677,790.515259 692.980957,789.523438 
	C710.360291,789.117065 727.717834,789.067566 745.539062,789.092346 
z"/>
<path fill="#8712FF" opacity="1.000000" stroke="none" 
	d="
M101.892136,646.045532 
	C93.863831,632.128784 85.835518,618.212036 77.845032,603.684204 
	C89.967827,582.288513 101.992012,561.468140 114.173996,540.740479 
	C117.930748,534.348450 122.117828,528.209351 126.107880,521.954468 
	C133.389343,534.216797 140.677322,546.475220 147.945099,558.745667 
	C149.012604,560.547913 149.984146,562.406982 150.722778,564.692505 
	C149.436188,566.213257 148.173508,567.134338 147.456085,568.371582 
	C138.216248,584.305725 129.129578,600.328979 119.845016,616.236755 
	C113.998718,626.253601 107.885582,636.114624 101.892136,646.045532 
z"/>
<path fill="#741BFF" opacity="1.000000" stroke="none" 
	d="
M197.905548,643.577393 
	C185.020355,666.276733 172.022095,688.680176 158.949219,711.040039 
	C156.622467,715.019714 153.986282,718.818481 151.192200,722.874023 
	C141.932434,715.675781 136.082306,705.962952 130.508148,696.034180 
	C128.384415,692.251282 126.168457,688.520142 124.241837,684.234253 
	C125.745346,682.179443 127.243256,680.796021 128.220673,679.110779 
	C138.868484,660.751465 149.366684,642.305176 160.057419,623.971130 
	C164.209854,616.849854 168.746826,609.952698 173.108643,602.953491 
	C179.530884,613.912964 185.904984,624.901123 192.410400,635.811035 
	C193.971924,638.429810 195.969788,640.788391 197.905548,643.577393 
z"/>
<path fill="#00AAFF" opacity="1.000000" stroke="none" 
	d="
M632.539551,789.092468 
	C625.369507,802.563049 617.762939,815.974976 610.093994,829.351196 
	C603.244263,841.298523 596.291809,853.187134 589.472900,865.152039 
	C588.420654,866.998291 587.841736,869.114319 587.023682,871.469543 
	C571.357666,872.962402 556.060791,871.463928 541.287598,865.119019 
	C550.189026,848.966003 559.068726,833.427917 568.079163,817.966064 
	C574.329285,807.240784 580.759399,796.620361 587.109131,785.953125 
	C601.867249,790.360229 617.039246,788.696472 632.539551,789.092468 
z"/>
<path fill="#00A6FF" opacity="1.000000" stroke="none" 
	d="
M789.421204,363.904236 
	C794.588257,353.835510 800.089844,343.789398 805.779358,333.850922 
	C814.534058,318.558258 823.445251,303.355225 832.204102,288.064941 
	C833.090271,286.517975 833.386902,284.633270 833.979614,282.535950 
	C848.916504,285.139099 862.059692,291.795319 873.667114,301.806580 
	C872.716736,303.136688 871.725647,303.859833 871.164246,304.831268 
	C864.432922,316.478088 857.822815,328.195129 851.066345,339.827148 
	C843.065735,353.601013 834.953247,367.309967 826.889282,381.047058 
	C816.434448,371.244019 804.101685,365.516479 789.421204,363.904236 
z"/>
<path fill="#0075FF" opacity="1.000000" stroke="none" 
	d="
M335.202881,542.348633 
	C338.007568,537.821716 341.120483,533.801270 343.646790,529.440979 
	C355.763611,508.528137 367.704102,487.513123 379.767120,466.568909 
	C380.829224,464.724792 382.324310,463.130096 383.834167,461.155273 
	C391.701599,474.002075 399.353210,487.113190 406.761963,500.769440 
	C405.831879,502.236633 405.046967,503.101746 404.471710,504.089050 
	C389.173248,530.344055 373.896423,556.611633 358.615906,582.877075 
	C350.824188,569.484192 343.032440,556.091309 335.202881,542.348633 
z"/>
<path fill="#8F0DFF" opacity="1.000000" stroke="none" 
	d="
M126.053734,521.592102 
	C122.117828,528.209351 117.930748,534.348450 114.173996,540.740479 
	C101.992012,561.468140 89.967827,582.288513 77.638725,603.406372 
	C69.657463,590.391907 61.920345,577.044189 54.037735,563.370117 
	C57.202911,558.144531 60.805099,553.414856 63.773136,548.316162 
	C75.784424,527.681885 87.589088,506.927429 99.513855,486.242645 
	C100.330467,484.826141 101.506966,483.617096 102.809708,482.132080 
	C110.735405,495.044952 118.367500,508.137329 126.053734,521.592102 
z"/>
<path fill="#6B1FFF" opacity="1.000000" stroke="none" 
	d="
M464.890289,259.046600 
	C458.852478,254.120743 453.140259,248.699951 446.664368,244.440109 
	C442.223419,241.518860 436.720398,240.212173 431.414948,237.669220 
	C441.784790,218.565903 452.468079,199.997726 463.061584,181.378464 
	C467.485870,173.602280 471.719269,165.717468 476.039429,157.882050 
	C490.260101,161.165222 501.790070,168.942200 511.744995,179.888824 
	C510.887451,181.538345 509.928223,182.502441 509.271362,183.640961 
	C498.820404,201.756073 488.478180,219.934280 477.952271,238.005569 
	C473.798950,245.136139 469.255890,252.039688 464.890289,259.046600 
z"/>
<path fill="#007CFF" opacity="1.000000" stroke="none" 
	d="
M358.773041,583.166687 
	C373.896423,556.611633 389.173248,530.344055 404.471710,504.089050 
	C405.046967,503.101746 405.831879,502.236633 406.813904,501.133484 
	C411.404022,507.963013 415.773193,514.929749 419.971252,521.997986 
	C423.360107,527.703796 426.542542,533.532166 429.962036,539.630615 
	C427.025085,544.411682 423.627228,548.685059 420.914581,553.356323 
	C408.841339,574.146606 396.978210,595.058777 384.990082,615.898682 
	C384.009430,617.603516 382.660217,619.096375 381.188507,620.867188 
	C374.593170,610.338196 368.286285,599.632812 361.995239,588.918213 
	C360.938416,587.118225 359.950104,585.277954 358.773041,583.166687 
z"/>
<path fill="#7E16FF" opacity="1.000000" stroke="none" 
	d="
M172.959290,602.629578 
	C168.746826,609.952698 164.209854,616.849854 160.057419,623.971130 
	C149.366684,642.305176 138.868484,660.751465 128.220673,679.110779 
	C127.243256,680.796021 125.745346,682.179443 124.189934,683.874756 
	C116.655663,671.596436 109.420586,659.146362 102.038818,646.370972 
	C107.885582,636.114624 113.998718,626.253601 119.845016,616.236755 
	C129.129578,600.328979 138.216248,584.305725 147.456085,568.371582 
	C148.173508,567.134338 149.436188,566.213257 150.779816,565.052734 
	C158.346100,577.408691 165.578018,589.857178 172.959290,602.629578 
z"/>
<path fill="#00A6FF" opacity="1.000000" stroke="none" 
	d="
M586.938965,785.627197 
	C580.759399,796.620361 574.329285,807.240784 568.079163,817.966064 
	C559.068726,833.427917 550.189026,848.966003 541.102295,864.789124 
	C529.971130,861.024048 521.046021,854.009338 513.089111,845.604736 
	C511.833221,844.278198 510.509308,843.016052 509.087341,841.418884 
	C521.629639,819.427429 534.284851,797.731506 546.985046,776.061951 
	C550.087341,770.768677 553.336975,765.561829 556.813599,760.134216 
	C564.139404,771.744080 573.748962,780.517944 586.938965,785.627197 
z"/>
<path fill="#741BFF" opacity="1.000000" stroke="none" 
	d="
M475.836975,157.551071 
	C471.719269,165.717468 467.485870,173.602280 463.061584,181.378464 
	C452.468079,199.997726 441.784790,218.565903 431.068237,237.493973 
	C416.973480,237.547821 402.948212,237.262390 388.458740,236.904419 
	C392.366608,228.668015 396.594574,220.422974 401.139496,212.356506 
	C411.965179,193.142914 422.940643,174.013702 433.924255,154.509262 
	C447.968842,153.883636 461.983276,153.074570 475.836975,157.551071 
z"/>
<path fill="#00B2FF" opacity="1.000000" stroke="none" 
	d="
M919.056702,371.591187 
	C916.189026,376.126129 912.956360,380.112854 910.402771,384.495270 
	C897.120300,407.290771 884.010803,430.187073 870.610596,453.392487 
	C863.252930,441.412994 856.125793,429.089294 849.239014,416.225159 
	C850.167358,414.762177 850.955566,413.897583 851.528625,412.908325 
	C860.276733,397.807129 869.009277,382.696930 877.719116,367.573608 
	C884.179871,356.355438 890.602356,345.115265 897.041870,333.884888 
	C899.679871,338.075836 902.440674,342.195312 904.929749,346.472992 
	C909.702942,354.676392 914.322021,362.969604 919.056702,371.591187 
z"/>
<path fill="#00AAFF" opacity="1.000000" stroke="none" 
	d="
M897.018005,333.521667 
	C890.602356,345.115265 884.179871,356.355438 877.719116,367.573608 
	C869.009277,382.696930 860.276733,397.807129 851.528625,412.908325 
	C850.955566,413.897583 850.167358,414.762177 849.184082,415.865173 
	C842.595154,405.712128 836.320618,395.366821 829.982361,385.060730 
	C829.221252,383.823151 828.114563,382.798126 827.028687,381.360840 
	C834.953247,367.309967 843.065735,353.601013 851.066345,339.827148 
	C857.822815,328.195129 864.432922,316.478088 871.164246,304.831268 
	C871.725647,303.859833 872.716736,303.136688 873.809143,302.125122 
	C884.311035,310.467407 891.159363,321.441345 897.018005,333.521667 
z"/>
<path fill="#6324FF" opacity="1.000000" stroke="none" 
	d="
M464.942810,259.405701 
	C469.255890,252.039688 473.798950,245.136139 477.952271,238.005569 
	C488.478180,219.934280 498.820404,201.756073 509.271362,183.640961 
	C509.928223,182.502441 510.887451,181.538345 511.878113,180.193695 
	C520.247864,186.499329 524.563538,195.915054 529.880676,204.596695 
	C531.388611,207.058823 532.635071,209.681076 533.760498,212.772461 
	C533.071899,213.797424 532.513000,214.215683 532.192627,214.771454 
	C519.290710,237.152527 506.464691,259.577606 493.479126,281.909943 
	C491.028198,286.125000 487.953552,289.977325 485.166718,293.997009 
	C479.350555,284.102875 473.535919,274.207825 467.716644,264.315521 
	C466.820526,262.792145 465.902954,261.281403 464.942810,259.405701 
z"/>
<path fill="#5C27FF" opacity="1.000000" stroke="none" 
	d="
M485.201233,294.345184 
	C487.953552,289.977325 491.028198,286.125000 493.479126,281.909943 
	C506.464691,259.577606 519.290710,237.152527 532.192627,214.771454 
	C532.513000,214.215683 533.071899,213.797424 533.814575,213.134308 
	C538.658813,220.426483 543.237183,227.881882 547.742554,235.381119 
	C549.498535,238.303909 551.090210,241.325363 552.481689,244.756256 
	C551.648315,245.800262 550.948669,246.307877 550.552429,246.991440 
	C539.338135,266.339966 528.216980,285.742767 516.932922,305.050446 
	C512.777100,312.161316 508.248657,319.054321 503.890137,326.046692 
	C497.672028,315.595581 491.453888,305.144470 485.201233,294.345184 
z"/>
<path fill="#5C27FF" opacity="1.000000" stroke="none" 
	d="
M276.997986,662.166992 
	C285.225616,662.441711 293.466339,662.531250 301.672394,663.111084 
	C303.945129,663.271606 306.114899,664.889221 308.589508,666.335022 
	C296.350342,688.371216 283.797577,709.878601 271.404633,731.477722 
	C268.953979,735.748779 267.117828,740.372437 264.998291,744.833496 
	C254.307495,744.880859 243.616699,744.928223 232.467026,744.530762 
	C232.383362,742.835754 232.532944,741.455688 233.167313,740.354919 
	C244.211441,721.191406 255.406647,702.114319 266.356018,682.897156 
	C270.197571,676.154785 273.467224,669.086487 276.997986,662.166992 
z"/>
<path fill="#8712FF" opacity="1.000000" stroke="none" 
	d="
M367.535889,154.095428 
	C362.975250,163.312790 358.070038,172.528290 352.900116,181.592834 
	C342.870178,199.178665 332.687561,216.677399 322.592255,234.226059 
	C322.273712,234.779800 322.219940,235.485870 322.021545,236.477692 
	C311.641205,236.882217 301.282013,236.929977 290.458679,236.904755 
	C292.686310,231.354340 295.098663,225.717346 298.119537,220.427872 
	C309.491241,200.516312 321.082153,180.730026 332.521881,160.857040 
	C333.582977,159.013687 334.155701,156.889206 334.975403,154.531555 
	C345.687653,154.120361 356.379700,154.072876 367.535889,154.095428 
z"/>
<path fill="#6324FF" opacity="1.000000" stroke="none" 
	d="
M276.534119,662.097107 
	C273.467224,669.086487 270.197571,676.154785 266.356018,682.897156 
	C255.406647,702.114319 244.211441,721.191406 233.167313,740.354919 
	C232.532944,741.455688 232.383362,742.835754 232.003052,744.459473 
	C221.972748,744.880310 211.947540,744.927673 201.457840,744.903259 
	C204.525986,737.912415 207.798615,730.845215 211.640686,724.102356 
	C222.590363,704.885864 233.784882,685.809021 244.828674,666.645813 
	C245.462860,665.545410 245.611557,664.165100 245.989838,662.541687 
	C256.019043,662.121216 266.044617,662.074219 276.534119,662.097107 
z"/>
<path fill="#562AFF" opacity="1.000000" stroke="none" 
	d="
M503.942993,326.408630 
	C508.248657,319.054321 512.777100,312.161316 516.932922,305.050446 
	C528.216980,285.742767 539.338135,266.339966 550.552429,246.991440 
	C550.948669,246.307877 551.648315,245.800262 552.520020,245.105667 
	C557.808167,253.434937 562.782837,261.869171 567.795715,270.653076 
	C564.964294,275.185883 561.823853,279.210785 559.270752,283.579010 
	C546.594055,305.268066 534.076782,327.050293 521.480957,348.786743 
	C520.900574,349.788361 520.104492,350.664978 519.150818,351.824860 
	C513.927124,343.623444 508.961487,335.197021 503.942993,326.408630 
z"/>
<path fill="#562AFF" opacity="1.000000" stroke="none" 
	d="
M265.462341,744.904541 
	C267.117828,740.372437 268.953979,735.748779 271.404633,731.477722 
	C283.797577,709.878601 296.350342,688.371216 308.922211,666.499084 
	C316.698730,669.512939 319.229736,677.087219 323.141785,683.517212 
	C325.493805,687.383118 327.719055,691.326111 329.754639,695.766968 
	C328.718903,697.134155 327.733307,697.854553 327.171143,698.821228 
	C321.848175,707.974121 316.480225,717.104431 311.367249,726.374756 
	C308.036804,732.413208 305.107391,738.672729 301.998322,744.833252 
	C289.974335,744.880676 277.950348,744.928101 265.462341,744.904541 
z"/>
<path fill="#0075FF" opacity="1.000000" stroke="none" 
	d="
M390.468597,401.900879 
	C392.675720,396.544006 395.164032,391.154663 398.054047,385.990143 
	C404.697449,374.118317 411.514008,362.342896 418.329071,350.568146 
	C419.054657,349.314545 420.235931,348.324677 421.518494,347.109924 
	C428.701691,358.985199 435.898010,370.791931 442.311066,383.009827 
	C445.742004,389.546265 440.150269,399.176392 432.604309,400.916443 
	C429.607300,401.607605 426.464996,401.919067 423.384125,401.951141 
	C412.567902,402.063873 401.749695,401.979889 390.468597,401.900879 
z"/>
<path fill="#4F2EFF" opacity="1.000000" stroke="none" 
	d="
M302.462402,744.904114 
	C305.107391,738.672729 308.036804,732.413208 311.367249,726.374756 
	C316.480225,717.104431 321.848175,707.974121 327.171143,698.821228 
	C327.733307,697.854553 328.718903,697.134155 329.809143,696.126709 
	C335.775513,706.093872 342.123932,715.924622 346.896637,726.468628 
	C350.944122,735.410339 343.602936,744.956299 333.796875,744.989502 
	C323.506866,745.024414 313.216614,744.983032 302.462402,744.904114 
z"/>
</svg>